<?xml version="1.0" encoding="UTF-8"?>
<!-- Generated by Pixelmator Pro 3.3.9 -->
<svg width="522" height="187" viewBox="0 0 522 187" xmlns="http://www.w3.org/2000/svg">
    <path id="Path" fill="#000000" stroke="none" d="M 393.104004 54 L 393.104004 132 L 404.519989 132 L 404.519989 54 L 393.104004 54 Z"/>
    <path id="path1" fill="#000000" fill-rule="evenodd" stroke="none" d="M 289.878998 133.259003 C 285.373993 133.259003 281.610992 132.210007 278.588989 130.110992 C 278.257996 129.882004 277.937012 129.643005 277.623993 129.395004 L 277.623993 132 L 267.550995 132 L 267.550995 55.259094 L 279.050995 55.259094 L 279.050995 88.134804 C 281.872009 86.3209 285.285004 85.413902 289.290985 85.413902 C 293.627991 85.413902 297.404999 86.449203 300.622986 88.5196 C 303.841003 90.590103 306.330994 93.430099 308.092987 97.039497 C 309.884003 100.621002 310.778992 104.720001 310.778992 109.335999 C 310.778992 113.869003 309.89801 117.940002 308.13501 121.550003 C 306.401001 125.158997 303.966003 128.013 300.833008 130.110992 C 297.699005 132.210007 294.048004 133.259003 289.878998 133.259003 Z M 278.631012 102.117996 C 277.959015 104.188004 277.623993 106.594002 277.623993 109.335999 C 277.623993 112.078003 277.959015 114.485001 278.631012 116.555 C 279.302002 118.625999 280.394012 120.234001 281.903992 121.382004 C 283.442993 122.528999 285.485992 123.101997 288.032013 123.101997 C 290.493988 123.101997 292.509003 122.487 294.075989 121.255997 C 295.643005 120.025002 296.803986 118.374001 297.55899 116.303001 C 298.315002 114.205002 298.691986 111.883003 298.691986 109.335999 C 298.691986 106.818001 298.300995 104.524002 297.516998 102.454002 C 296.734009 100.355003 295.516998 98.690201 293.865997 97.459099 C 292.243011 96.200104 290.15799 95.570503 287.612 95.570503 C 285.234009 95.570503 283.303009 96.144096 281.821014 97.291298 C 280.365997 98.4384 279.302002 100.046997 278.631012 102.117996 Z"/>
    <path id="path2" fill="#000000" stroke="none" d="M 249.503006 105.223 L 249.503006 132 L 260.917999 132 L 260.917999 102.202003 C 260.917999 97.249298 259.588989 93.248199 256.931 90.198402 C 254.300995 87.120697 250.397995 85.581802 245.222 85.581802 C 242.199997 85.581802 239.444 86.253304 236.953995 87.596298 C 234.673996 88.814003 232.813995 90.487396 231.373993 92.616699 C 230.300003 90.684303 228.815994 89.094803 226.923004 87.848099 C 224.656998 86.337196 221.746994 85.581802 218.194 85.581802 C 215.087997 85.581802 212.276001 86.267303 209.757996 87.638298 C 207.854996 88.685997 206.246002 90.0196 204.931 91.639099 L 204.931 86.672997 L 194.858994 86.672997 L 194.858994 132 L 206.358002 132 L 206.358002 104.552002 C 206.358002 101.949997 207.072006 99.837402 208.498993 98.2146 C 209.953995 96.563797 211.869995 95.738403 214.248001 95.738403 C 216.738998 95.738403 218.682999 96.577797 220.082001 98.256599 C 221.509003 99.907402 222.223007 102.230003 222.223007 105.223 L 222.223007 132 L 233.638 132 L 233.638 104.552002 C 233.638 102.817001 233.960007 101.292 234.604004 99.977303 C 235.274994 98.6343 236.197998 97.598999 237.373993 96.871597 C 238.548996 96.116096 239.934006 95.738403 241.529007 95.738403 C 244.018997 95.738403 245.962997 96.577797 247.362 98.256599 C 248.789001 99.907402 249.503006 102.230003 249.503006 105.223 Z"/>
    <path id="path3" fill="#000000" stroke="none" d="M 153.960007 131.537994 C 156.197998 132.740997 159.093994 133.343002 162.647995 133.343002 C 167.095993 133.343002 170.776001 132.378006 173.686005 130.447006 C 175.067001 129.539993 176.283997 128.498993 177.337006 127.325996 L 177.337006 132 L 187.410004 132 L 187.410004 86.672997 L 175.910004 86.672997 L 175.910004 109.671997 C 175.910004 112.470001 175.587997 114.736 174.945007 116.471001 C 174.328995 118.178001 173.531998 119.478996 172.552002 120.374001 C 171.572998 121.241997 170.524002 121.829002 169.404999 122.137001 C 168.285995 122.445 167.235992 122.598999 166.257004 122.598999 C 163.822998 122.598999 161.934006 122.053001 160.591003 120.961998 C 159.276001 119.871002 158.324997 118.514 157.737 116.890999 C 157.149994 115.267998 156.800003 113.658997 156.688004 112.064003 C 156.576004 110.442001 156.520004 109.112999 156.520004 108.077003 L 156.520004 86.672997 L 144.936996 86.672997 L 144.936996 112.106003 C 144.936996 112.862 144.992004 114.065002 145.104004 115.716003 C 145.216003 117.366997 145.537994 119.198997 146.070007 121.213997 C 146.600998 123.199997 147.483002 125.116997 148.714005 126.963997 C 149.973007 128.809998 151.722 130.335007 153.960007 131.537994 Z"/>
    <path id="path4" fill="#000000" stroke="none" d="M 315.817993 86.672997 L 315.817993 132 L 327.316986 132 L 327.316986 108.833 C 327.316986 107.098 327.554993 105.544998 328.031006 104.174004 C 328.506989 102.775002 329.205994 101.571999 330.128998 100.565002 C 331.053009 99.529602 332.186005 98.704201 333.528992 98.088699 C 334.872009 97.445198 336.368988 97.067398 338.019989 96.955498 C 339.697998 96.815598 341.166992 96.941498 342.425995 97.333199 L 342.425995 86.672997 C 341.054993 86.505096 339.68399 86.477097 338.312988 86.589104 C 336.941986 86.672997 335.613007 86.910797 334.325989 87.302498 C 333.039001 87.666298 331.850006 88.183899 330.759003 88.8554 C 329.332001 89.694801 328.128998 90.758003 327.149994 92.045097 C 326.686005 92.654404 326.265991 93.294998 325.890015 93.967003 L 325.890015 86.672997 L 315.817993 86.672997 Z"/>
    <path id="path5" fill="#000000" fill-rule="evenodd" stroke="none" d="M 366.462006 133.259003 C 361.816986 133.259003 357.717987 132.266006 354.165009 130.279007 C 350.639008 128.264999 347.868988 125.509003 345.855011 122.011002 C 343.868011 118.486 342.875 114.457001 342.875 109.924004 C 342.875 104.972 343.854004 100.663002 345.812988 96.997498 C 347.770996 93.3321 350.471008 90.492203 353.912994 88.477699 C 357.354004 86.435204 361.313995 85.413902 365.790009 85.413902 C 370.546997 85.413902 374.589996 86.533096 377.919006 88.7715 C 381.248993 91.009804 383.710999 94.157501 385.306 98.2146 C 386.901001 102.272003 387.460999 107.042 386.984985 112.526001 L 355.15799 112.526001 C 355.514008 115.247002 356.359009 117.457001 357.690002 119.156998 C 359.536987 121.452003 362.237 122.598999 365.790009 122.598999 C 368.028992 122.598999 369.945007 122.109001 371.540009 121.129997 C 373.13501 120.151001 374.35199 118.737999 375.19101 116.890999 L 386.606995 120.165001 C 384.899994 124.306 382.200012 127.523003 378.506989 129.817001 C 374.84201 132.112 370.826996 133.259003 366.462006 133.259003 Z M 373.471008 98.3825 C 374.446014 99.707901 375.101013 101.597 375.434998 104.047997 L 355.458008 104.047997 C 355.903015 101.955002 356.647003 100.234001 357.690002 98.886101 C 359.536987 96.507797 362.404999 95.318703 366.294006 95.318703 C 369.623993 95.318703 372.015991 96.339996 373.471008 98.3825 Z"/>
    <path id="path6" fill="#000000" stroke="none" d="M 413.743988 132 L 413.743988 54 L 425.160004 54 L 425.160004 132 L 413.743988 132 Z"/>
    <path id="path7" fill="#000000" fill-rule="evenodd" stroke="none" d="M 437.868011 131.412003 C 440.13501 132.643005 442.890991 133.259003 446.135986 133.259003 C 450.053009 133.259003 453.285004 132.587006 455.830994 131.244003 C 457.860992 130.162994 459.777008 128.561005 461.580994 126.435997 L 461.580994 132 L 471.570007 132 L 471.570007 104.300003 C 471.570007 102.230003 471.485992 100.355003 471.317993 98.6763 C 471.149994 96.997498 470.618011 95.318703 469.722992 93.6399 C 468.127991 90.618103 465.778015 88.491699 462.671997 87.260597 C 459.56601 86.029503 456.013 85.413902 452.011993 85.413902 C 446.556 85.413902 442.247009 86.589104 439.084991 88.9394 C 435.924011 91.289597 433.769012 94.339401 432.622009 98.088699 L 442.946991 101.362 C 443.674011 99.291801 444.946991 97.850899 446.765991 97.039497 C 448.584015 96.227997 450.333008 95.822304 452.011993 95.822304 C 455.033997 95.822304 457.187988 96.451897 458.475006 97.710999 C 459.485992 98.699699 460.100006 100.127998 460.316986 101.997002 C 458.384003 102.290001 456.553009 102.568001 454.824005 102.831001 C 451.885986 103.250999 449.256012 103.698997 446.93399 104.174004 C 444.610992 104.650002 442.610992 105.195999 440.932007 105.810997 C 438.497986 106.706001 436.553009 107.825996 435.097992 109.168999 C 433.67099 110.484001 432.635986 112.008003 431.992004 113.742996 C 431.348999 115.477997 431.027008 117.394997 431.027008 119.492996 C 431.027008 122.011002 431.601013 124.319 432.747986 126.417999 C 433.923004 128.488007 435.630005 130.153 437.868011 131.412003 Z M 453.859009 123.185997 C 452.432007 123.914001 450.669006 124.278 448.570007 124.278 C 447.255005 124.278 446.122009 124.082001 445.17099 123.690002 C 444.220001 123.297997 443.477997 122.738998 442.946991 122.011002 C 442.442993 121.255997 442.19101 120.360001 442.19101 119.324997 C 442.19101 118.57 442.345001 117.884003 442.653015 117.268997 C 442.988007 116.653 443.492004 116.094002 444.164001 115.589996 C 444.863007 115.057999 445.772003 114.569 446.891998 114.121002 C 447.871002 113.757004 449.003998 113.420998 450.290985 113.113998 C 451.578003 112.806 453.270996 112.470001 455.368988 112.106003 C 456.717987 111.855003 458.332001 111.568001 460.212006 111.247002 C 460.186005 112.044998 460.138 112.946999 460.070007 113.953003 C 459.985992 115.575996 459.649994 117.002998 459.062988 118.234001 C 458.755005 118.876999 458.166992 119.675003 457.299988 120.625999 C 456.460999 121.577003 455.313995 122.431 453.859009 123.185997 Z"/>
    <path id="path8" fill="#ee1b23" fill-rule="evenodd" stroke="none" d="M 81.936501 87 L 50.936501 87 L 50.936501 100.5 C 50.936501 120.657997 67.278099 137 87.436501 137 C 107.595001 137 123.936996 120.657997 123.936996 100.5 L 123.936996 87 L 91.936501 87 L 91.936501 65.5 C 91.936501 56.939606 84.996902 50 76.436501 50 C 67.876099 50 60.936501 56.939606 60.936501 65.5 L 70.936501 65.5 C 70.936501 62.462402 73.399002 60 76.436501 60 C 79.474098 60 81.936501 62.462402 81.936501 65.5 L 81.936501 87 Z M 81.936501 97 L 81.936501 116 L 91.936501 116 L 91.936501 97 L 113.936996 97 L 113.936996 100.5 C 113.936996 115.136002 102.071999 127 87.436501 127 C 72.801003 127 60.936501 115.136002 60.936501 100.5 L 60.936501 97 L 81.936501 97 Z"/>
</svg>
